<svg width="233" height="233" viewBox="0 0 233 233" fill="none" xmlns="http://www.w3.org/2000/svg">
<path fill-rule="evenodd" clip-rule="evenodd" d="M0 4C0 1.79086 1.79086 0 4 0H18H22V8H18H8V225H224C226.209 225 228 226.791 228 229C228 231.209 226.209 233 224 233H4C1.79086 233 0 231.209 0 229V4ZM58 0H54H40H36V8H40H50V176H40H36V184H40H54H58V180V4V0ZM182.312 196.438C185.354 192.812 186.875 188.896 186.875 184.688C186.875 181.021 185.833 178.167 183.75 176.125C181.667 174.042 179.312 173 176.688 173C173.938 173 171.958 173.792 170.75 175.375C169.542 176.958 168.938 178.583 168.938 180.25C168.938 182.417 169.667 184.083 171.125 185.25C172.583 186.375 174.188 186.938 175.938 186.938L180.125 186.5C180.542 186.5 180.938 186.583 181.312 186.75C181.688 186.917 181.875 187.292 181.875 187.875C181.875 189.625 181.104 191.812 179.562 194.438C178.062 197.062 175.312 199.5 171.312 201.75L172.5 204.25C176 202.667 179.271 200.062 182.312 196.438Z" fill="#FF6358"/>
<path fill-rule="evenodd" clip-rule="evenodd" d="M161 0H220C222.209 0 224 1.79086 224 4V38.9999H232V46.9999H224V220H216V46.9999H182L182 168.644C180.477 168.215 178.896 168 177.258 168C176.097 168 175.011 168.075 174 168.224L174 46.9999H153C150.791 46.9999 149 45.209 149 42.9999C149 40.7907 150.791 38.9999 153 38.9999H174L174 8H161V0ZM182 8L182 38.9999H216V8H182ZM124 71.0001L124 4.00009L132 4.00009L132 71.0001H124ZM133 87.0001H91.0002V176H141V83.0001C141 80.791 142.791 79.0001 145 79.0001C147.209 79.0001 149 80.791 149 83.0001V176H164.065C163.355 177.64 163 179.304 163 180.992C163 182.063 163.102 183.066 163.306 184H149V203H141V184H91.0002V204H83.0002V184H70.5V176H83.0002L83.0002 87.0001H75V79.0001H83.0002L83.0002 9.13024e-05L116 9.15527e-05V8.00009H91.0002V79.0001H133V87.0001Z" fill="white"/>
</svg>
