<svg width="168" height="144" viewBox="0 0 168 144" fill="none" xmlns="http://www.w3.org/2000/svg">
<rect x="42" y="101" width="84" height="42" fill="#FF6358"/>
<path d="M0 122C0 110.402 9.40202 101 21 101V101C32.598 101 42 110.402 42 122V122C42 133.598 32.598 143 21 143V143C9.40202 143 0 133.598 0 122V122Z" fill="#FF585B"/>
<path d="M52 23C52 11.402 61.402 2 73 2V2C84.598 2 94 11.402 94 23V23C94 34.598 84.598 44 73 44V44C61.402 44 52 34.598 52 23V23Z" fill="#002E31"/>
<path d="M21 72C21 60.402 30.402 51 42 51V51C53.598 51 63 60.402 63 72V72C63 83.598 53.598 93 42 93V93C30.402 93 21 83.598 21 72V72Z" fill="#58A1FF"/>
<path d="M73 21C73 9.40202 82.402 0 94 0V0C105.598 0 115 9.40202 115 21V21C115 32.598 105.598 42 94 42V42C82.402 42 73 32.598 73 21V21Z" fill="#58F4FF"/>
<path d="M126 123C126 111.402 135.402 102 147 102V102C158.598 102 168 111.402 168 123V123C168 134.598 158.598 144 147 144V144C135.402 144 126 134.598 126 123V123Z" fill="#FF7158"/>
<path d="M105 72C105 60.402 114.402 51 126 51V51C137.598 51 147 60.402 147 72V72C147 83.598 137.598 93 126 93V93C114.402 93 105 83.598 105 72V72Z" fill="#58FFB7"/>
</svg>
